<?xml version="1.0" encoding="UTF-8"?>
<!-- Created with Inkscape (http://www.inkscape.org/) -->
<svg width="171.71mm" height="102.15mm" version="1.1" viewBox="0 0 171.71 102.15" xmlns="http://www.w3.org/2000/svg">
 <g transform="translate(-22.517 -3.124)">
  <path d="m102.69 105.07c-23.946-1.817-46.347-13.74-68.13-36.263-6.7606-6.9902-12.039-13.352-12.039-14.51 0-0.54108 0.45947-1.3389 1.556-2.7017 6.232-7.7458 14.108-16.042 20.669-21.77 25.848-22.568 52.357-30.725 80.83-24.871 17.307 3.5577 35.971 14.375 52.485 30.419 6.5404 6.3545 16.175 17.535 16.175 18.771 0 2.1282-14.003 17.332-23.151 25.135-13.064 11.144-26.173 18.608-39.459 22.465-10.088 2.9286-19.663 4.029-28.936 3.3254zm10.98-3.6929c10.37-0.76344 19.987-3.361 30.045-8.1147 10.032-4.7417 21.701-13.078 30.412-21.727l3.0427-3.0211-2.249 1.712c-8.0677 6.1414-11.718 8.7857-16.462 11.926-7.4375 4.9224-10.405 6.5663-5.1016 2.8262 4.0598-2.8631 7.6924-5.7202 14.42-11.342 6.5059-5.4362 13.229-11.32 13.229-11.577 0-0.0757-0.44648 0.13114-0.99219 0.45963-1.8277 1.1002-8.9128 5.6005-10.416 6.6162-1.7768 1.2003-7.3023 4.5514-8.5066 5.159-1.1394 0.57484-0.70917 0.18925 1.5265-1.3682 1.0186-0.70961 2.5665-1.8428 3.4396-2.5182 2.5907-2.004 15.231-11.151 16.735-12.11 2.2935-1.4626 2.6546-1.5722-6.6807 2.028-5.9572 2.2975-11.196 4.1318-10.848 3.7984 0.31359-0.3004 12.87-6.2396 16.669-7.8842l2.6458-1.1455-3.3073-3e-3c-4.51-4e-3 -15.428-0.55736-15.692-0.79559-0.22494-0.20342 3.8046-0.41492 13.41-0.70385l5.7879-0.1741-1.5545-0.58956c-1.2975-0.49207-7.4211-3.32-16.318-7.5358-0.98945-0.46884-1.7531-0.89831-1.697-0.95438 0.15119-0.15119 5.7497 1.821 11.169 3.9345 2.6194 1.0216 5.3578 2.0884 6.0854 2.3708 1.6157 0.62712 1.5051 0.52007-1.9844-1.9202-1.528-1.0686-5.3456-3.8544-8.4835-6.1908-3.138-2.3364-7.1466-5.2598-8.9082-6.4964-1.7615-1.2366-3.1583-2.2929-3.1039-2.3473 0.19808-0.19807 9.739 5.6176 17.056 10.397 4.0747 2.6613 4.2626 2.7674 3.4396 1.9412-0.75426-0.75709-11.826-10.585-14.806-13.143-4.1353-3.5495-7.9482-6.4822-14.569-11.206-0.38583-0.27528-0.106-0.20295 0.68052 0.1759 3.0238 1.4565 14.127 9.2309 21.154 14.811 5.2709 4.1861 5.3089 4.1953 1.3229 0.31797-17.699-17.216-36.629-27.122-57.018-29.837-3.75-0.4994-14.164-0.41786-18.389 0.14397-14.394 1.9143-27.353 7.1578-40.509 16.391-6.2798 4.4074-13.249 10.428-17.699 15.292-0.90566 0.98969-0.96444 1.0335 5.0289-3.7484 4.1415-3.3044 9.1807-6.9829 13.624-9.9455 3.6207-2.414 7.2059-4.5884 7.5654-4.5884 0.10838 0-1.2221 0.96605-2.9566 2.1468-4.8823 3.3235-13.411 10.335-21.624 17.777-1.7985 1.6296-4.0934 3.669-5.0998 4.5319-1.0064 0.86291-1.6308 1.4953-1.3874 1.4052 0.24336-0.09 3.339-2.0611 6.8792-4.3801 6.4618-4.2328 13.388-8.3998 13.604-8.1841 0.06352 0.0635-0.73973 0.68415-1.785 1.3792-1.0453 0.69505-5.3627 3.8452-9.5943 7.0003-4.2316 3.1551-8.5273 6.3164-9.5459 7.0251-2.9281 2.0372-2.9053 2.0373 1.9844 0.0156 2.105-0.87037 12.843-4.776 13.758-5.0043 1.3485-0.33625-14.059 7.0248-17.992 8.5957l-1.1906 0.47559 3.2266 0.0124c3.9398 0.0151 13.529 0.47563 15.162 0.72815 1.4572 0.22532-8.1988 0.80921-14.023 0.84795l-3.8365 0.0255 3.8365 1.6741c4.6918 2.0473 15.782 7.6669 14.684 7.4407-0.43656-0.09-4.7057-1.7017-9.4869-3.5817-4.7812-1.88-8.7634-3.4182-8.8492-3.4182-0.08581 0 0.38255 0.34154 1.0408 0.75899 1.2794 0.81134 9.1646 6.583 15.065 11.027 1.975 1.4874 4.5228 3.3731 5.6619 4.1904 1.1391 0.81729 1.9557 1.486 1.8147 1.486s-3.1056-1.8007-6.5879-4.0015c-3.4823-2.2008-7.7008-4.8566-9.3742-5.9017-1.6735-1.0451-3.3701-2.1156-3.7703-2.3789-0.40018-0.26332-0.7276-0.41744-0.7276-0.34249 0 0.18487 9.7181 8.7195 13.494 11.85 7.2482 6.0106 10.925 8.8474 15.183 11.714 1.4382 0.96825 2.4954 1.7605 2.3491 1.7605-0.14623 0-1.5611-0.7854-3.1442-1.7453-5.751-3.4873-14.081-9.2942-20.114-14.022-3.5566-2.7871-3.7796-2.9241-2.3431-1.44 2.1558 2.2274 7.5646 7.0674 11.154 9.9806 18.992 15.416 40.287 22.79 61.342 21.24zm-9.313-1.0542c-5.8372-0.5956-10.867-2.0634-16.352-4.7719-4.5005-2.2224-7.8151-4.5501-11.469-8.0543-6.9337-6.6493-11.562-15.042-13.588-24.641-0.53202-2.5201-0.60695-3.6266-0.6068-8.9606 2.01e-4 -6.9463 0.39282-9.5052 2.2643-14.757l1.0159-2.8509-0.89194-1.8612c-1.0854-2.2649-1.3268-3.5429-0.94024-4.9785 0.65806-2.4439 2.9481-3.8315 6.1102-3.7024l1.6189 0.06607 2.1773-2.4945c4.1362-4.7388 8.1557-7.8232 13.781-10.575 7.9565-3.8921 15.963-5.4763 24.25-4.7981 4.5788 0.37471 6.8866 0.84675 11.299 2.311 8.2772 2.7469 15.043 7.1911 20.07 13.183l2.0024 2.3866 2.2776 0.01826c1.8811 0.01508 2.468 0.12632 3.3709 0.63902 2.4563 1.3947 2.9036 4.3907 1.1664 7.8132l-0.89422 1.7618 1.0969 3.3631c1.4136 4.334 1.5944 5.0831 2.0462 8.4774 2.5992 19.525-8.1145 39.202-26.156 48.036-6.9383 3.3976-16.316 5.1385-23.649 4.3902zm0.71957-4.2934c3e-3 -0.1819 0.23868-2.9501 0.52359-6.1516 0.66127-7.4303 0.66376-7.8052 0.0519-7.8052-0.4184 0-0.6011 0.77513-1.4811 6.2839-0.55209 3.4561-1.0648 6.6021-1.1392 6.9911-0.13896 0.72572-0.0817 0.75834 1.7085 0.97292 0.1819 0.0218 0.33323-0.10919 0.3363-0.29109zm2.772-1.3229c0.0956-0.90951 0.13486-4.0637 0.0872-7.0092-0.0866-5.3511-0.0871-5.3556-0.68196-5.3578-0.4712-2e-3 -0.59531 0.147-0.59531 0.71352 0 0.86246-0.73301 10.595-0.91751 12.183l-0.1307 1.1245h2.0644zm2.6668 0.13229c-0.20401-1.8949-0.9465-11.303-0.9465-11.993 0-0.33197-0.1836-0.50836-0.52916-0.50836-0.51586 0-0.52917 0.17639-0.52917 7.0115v7.0115h2.1686zm2.7201 1.102c0.0521-0.0433-0.10502-1.2466-0.34911-2.674-0.24409-1.4274-0.7272-4.4844-1.0736-6.7932-0.34638-2.3089-0.67825-4.2465-0.7375-4.3057-0.0592-0.0592-0.31267-0.0291-0.56319 0.0671-0.40069 0.15376-0.43557 0.44888-0.29002 2.4536 0.28739 3.9586 0.94951 10.997 1.0664 11.336 0.0749 0.21741 0.40238 0.27089 0.98232 0.16043 0.47848-0.0911 0.91258-0.20112 0.96465-0.24442zm-9.7356-7.0569c0.61964-3.7481 1.0532-6.8882 0.96339-6.978-0.56643-0.56643-1.0074 0.61851-2.5292 6.7969-0.90553 3.6762-1.5524 6.7738-1.4375 6.8837 0.27368 0.26166 1.4833 0.44479 1.7043 0.25802 0.0949-0.0802 0.67947-3.2124 1.2991-6.9606zm12.315 6.5708c0.15545-0.4051-3.0643-13.649-3.3166-13.643-0.0834 2e-3 -0.30983 0.10432-0.50314 0.22687-0.28067 0.17793-0.2947 0.53684-0.0697 1.7819 0.15498 0.85749 0.64942 3.8172 1.0987 6.5771 0.44933 2.7599 0.87467 5.1114 0.94519 5.2255 0.22252 0.36003 1.6942 0.2254 1.8455-0.16883zm-14.465-6.6932c0.88234-3.5244 1.6042-6.5903 1.6042-6.813s-0.20836-0.40411-0.46302-0.40301c-0.3682 2e-3 -0.93462 1.3829-2.7659 6.7449l-2.3028 6.7429 0.71535 0.1574c0.39345 0.0866 0.83442 0.19164 0.97994 0.23348 0.14552 0.0418 0.34634 2e-3 0.44627-0.0893 0.0999-0.0909 0.9036-3.049 1.7859-6.5734zm17.034 6.39c0.31934-0.12254-0.023-1.3934-1.8531-6.8792-2.1034-6.3051-2.5916-7.3281-3.1026-6.5014-0.1169 0.18914 2.7079 12.072 3.1333 13.18 0.13796 0.35953 1.1247 0.46789 1.8224 0.20014zm-19.221-7.0044c1.2259-3.5593 2.253-6.5876 2.2824-6.7297 0.0294-0.14207-0.18991-0.29596-0.48733-0.34199-0.47278-0.0732-0.88377 0.71611-3.2692 6.2782-1.5006 3.499-2.6636 6.531-2.5843 6.7376 0.13158 0.3429 1.0324 0.66212 1.5983 0.56637 0.12714-0.0215 1.2342-2.9512 2.4601-6.5105zm21.447 6.346 0.80178-0.2795-2.4364-6.0044c-2.5756-6.3474-2.9615-7.1974-3.2647-7.1909-0.89689 0.0192-0.79078 0.58448 1.2683 6.7568 1.1625 3.4848 2.1696 6.4848 2.238 6.6667 0.15161 0.40316 0.3613 0.41087 1.393 0.0512zm2.4127-0.80472c0.45828-0.15975 0.83323-0.4159 0.83323-0.56921 0-0.15332-1.3972-3.0587-3.1048-6.4564-2.9132-5.7963-3.486-6.6424-4.0887-6.0397-0.18191 0.18191 5.169 13.356 5.4248 13.356 0.0562 0 0.47716-0.13071 0.93544-0.29047zm-28.457-0.43713c0.21395-0.70674 4.6227-10.94 5.0909-11.817 0.33197-0.62156 0.3452-0.81258 0.0685-0.98813-0.18868-0.11969-0.40259-0.21923-0.47535-0.2212-0.24931-7e-3 -1.523 2.2488-4.2407 7.5098-2.5627 4.9609-2.6918 5.286-2.2318 5.6224 0.68516 0.501 1.6215 0.4455 1.7885-0.10602zm31.156-0.7344c0.42933-0.22202 0.78061-0.50519 0.78061-0.62926 0-0.51209-4.7935-8.1181-5.9102-9.3779-0.66453-0.7497-1.4418-1.6608-1.7273-2.0246-1.2399-1.58-0.59868 0.0108 2.2957 5.6956 3.2547 6.3925 3.4429 6.7399 3.6508 6.7399 0.0714 0 0.48109-0.18165 0.91043-0.40367zm-30.683-6.0125c1.7835-3.3834 3.3713-6.239 3.5285-6.346 0.17325-0.11786 0.10345-0.19598-0.17729-0.19843-0.25466-2e-3 -0.46302 0.0959-0.46302 0.21802 0 0.12215-0.73855 0.98535-1.6412 1.9182-1.0938 1.1304-2.4515 3.0641-4.0706 5.7972-2.3694 3.9998-2.4155 4.109-1.8645 4.4224 1.2172 0.69242 1.34 0.54009 4.6882-5.8115zm-3.4079 1.23c1.8952-3.1882 2.1951-3.8361 1.7165-3.7078-0.31895 0.0855-0.83889 0.15713-1.1554 0.15912-0.4364 3e-3 -1.0051 0.65924-2.3524 2.7156-0.97727 1.4916-1.947 2.9717-2.155 3.2891-0.3499 0.53409-0.32244 0.60733 0.36803 0.98159 0.41037 0.22245 0.86666 0.40921 1.014 0.41504 0.14732 6e-3 1.3012-1.7279 2.5643-3.8527zm36.736 3.4596c0.42934-0.22201 0.78061-0.46893 0.78061-0.54871 0-0.22901-3.6844-5.5816-4.0432-5.8738-0.31049-0.25286-2.353-0.89421-2.4632-0.77347-0.13518 0.14803 4.4627 7.5996 4.6892 7.5996 0.14078 0 0.60723-0.18165 1.0366-0.40367zm-39.501-3.8361c1.4689-2.2224 1.8104-2.9048 1.4552-2.9076-0.25528-2e-3 -0.72263-0.0729-1.0386-0.15768-0.48577-0.1303-0.8665 0.24142-2.4674 2.409-1.0411 1.4097-1.8542 2.5917-1.8068 2.6267 0.72958 0.53889 1.4498 0.94516 1.6663 0.94 0.14952-4e-3 1.1356-1.3133 2.1912-2.9104zm41.97 2.3041 0.76251-0.61015-1.7869-2.2328c-0.98282-1.228-1.8702-2.3247-1.972-2.4369-0.10181-0.11227-0.62774-0.11216-1.1687 2.4e-4l-0.98361 0.20437 1.3757 1.9841c2.0457 2.9504 2.6209 3.7041 2.8256 3.7026 0.10173-7.9e-4 0.5281-0.27588 0.94748-0.61147zm-44.566-3.1575 1.8514-2.4474-0.71994-0.3188c-0.39597-0.17534-0.85177-0.32416-1.0129-0.33073-0.2956-0.012-3.5435 3.7837-3.5435 4.1412 0 0.15713 1.3075 1.3603 1.5144 1.3936 0.0326 5e-3 0.89231-1.0918 1.9106-2.4379zm46.933 1.5515 0.74836-0.61229-1.7864-2.024c-0.98252-1.1132-1.8551-2.015-1.939-2.0039-0.0839 0.0111-0.5351 0.1599-1.0026 0.33073l-0.85007 0.3106 1.7616 2.3151c0.96888 1.2733 1.8872 2.3108 2.0407 2.3056 0.15351-5e-3 0.61586-0.28504 1.0275-0.6218zm-49.312-2.8574c0.88018-1.0456 1.6003-1.9761 1.6003-2.0677 0-0.0916-0.41065-0.36231-0.91255-0.60165l-0.91255-0.43517-1.587 1.7752-1.587 1.7752 0.69694 0.7276c0.38331 0.40018 0.78795 0.72761 0.8992 0.72761s0.92241-0.85553 1.8026-1.9012zm51.603 0.97924 0.61755-0.65735-1.4114-1.5255c-0.77629-0.83901-1.496-1.6249-1.5994-1.7464-0.14986-0.17619-1.6154 0.37243-2.0698 0.77484-0.18253 0.16163 3.1902 3.8117 3.522 3.8117 0.17793 0 0.60141-0.29581 0.94106-0.65735zm-53.846-2.6758c1.6116-1.8243 1.6064-1.7816 0.30595-2.5229-0.4193-0.239-0.73196-0.0475-2.0475 1.2543l-1.5526 1.5364 0.70792 0.7389c0.38935 0.4064 0.78355 0.7389 0.87601 0.7389 0.0924 0 0.86205-0.78554 1.7102-1.7456zm55.972 0.8139 0.62677-0.66716-1.4315-1.4495c-0.78733-0.79723-1.5954-1.4495-1.7957-1.4495s-0.65398 0.22795-1.0082 0.50657l-0.644 0.50657 1.4907 1.6101c0.81987 0.88556 1.6357 1.6101 1.8129 1.6101s0.6043-0.30022 0.94902-0.66716zm-57.985-2.6037 1.4012-1.4188-0.67528-0.72864-0.67528-0.72865-1.3964 1.1384c-0.768 0.62613-1.5014 1.2272-1.6298 1.3357-0.25884 0.21881 0.86766 1.7829 1.3008 1.8061 0.1505 8e-3 0.90414-0.62381 1.6748-1.4041zm59.864 0.57941 0.59768-0.83936-1.4396-1.2744c-0.79176-0.70092-1.5187-1.2757-1.6155-1.2773-0.0968-2e-3 -0.47864 0.26497-0.84857 0.59239l-0.67261 0.59532 1.5018 1.5214c0.82596 0.83675 1.5867 1.5214 1.6904 1.5214 0.10378 0 0.45766-0.37772 0.78638-0.83937zm-45.134-1.5048c0.62061-0.37846 1.1245-1.2069 2.2123-3.637 1.7316-3.8686 3.8919-8.0172 6.8333-13.123 1.2328-2.1398 2.1927-4.0367 2.1331-4.2154-0.0645-0.1934-0.75066 0.25667-1.696 1.1124-0.87329 0.79047-2.4906 2.1516-3.5939 3.0247l-2.0061 1.5875-2.793 5.8561c-2.9517 6.189-3.9745 8.7975-3.7148 9.4743 0.21832 0.56893 1.6318 0.52597 2.6251-0.0798zm30.471 0.0495c0.24287-0.63292-0.45606-2.4319-3.0039-7.7319-1.2315-2.5618-2.5468-5.3434-2.9229-6.1813-0.59585-1.3276-1.0449-1.8086-3.491-3.7402-1.5439-1.2191-3.0958-2.5278-3.4486-2.9082-0.35279-0.38039-0.74134-0.69161-0.86345-0.69161-0.36221 0 0.38101 1.5296 2.7092 5.5755 1.2081 2.0994 3.4352 6.3462 4.9492 9.4372 1.6779 3.4257 3.0165 5.8275 3.4285 6.1516 0.84116 0.66166 2.403 0.71424 2.643 0.089zm-47.135-1.0787c0.7882-0.69123 1.4306-1.3758 1.4276-1.5214-6e-3 -0.30886-0.92217-1.4552-1.1625-1.4552-0.0901 0-0.76632 0.47625-1.5027 1.0583-0.73638 0.58208-1.4473 1.0583-1.5797 1.0583-0.13246 0-0.24083 0.10993-0.24083 0.24428 0 0.2634 1.2868 1.8724 1.4975 1.8724 0.0701 0 0.77243-0.56555 1.5606-1.2568zm13.175-0.14022c0.36349-0.76835 1.8652-3.9468 3.3371-7.0632 1.4719-3.1164 2.8075-5.8244 2.9679-6.0177 0.59925-0.72204 0.0215-0.50401-2.1634 0.81652-2.1474 1.2978-2.3213 1.4761-3.9066 4.0041-2.2991 3.6663-3.659 6.1736-3.9797 7.3377-0.25454 0.92376-0.22094 1.0308 0.51932 1.6536 0.50105 0.4216 1.1168 0.66598 1.678 0.66598 0.81027 0 0.94338-0.12017 1.5474-1.397zm38.292 0.71695c0.76559-0.69286 0.63876-1.2781-0.90843-4.1919-2.4698-4.6512-4.498-7.5572-5.779-8.28-0.62607-0.35327-1.6433-0.93632-2.2606-1.2957l-1.1223-0.65337 0.8943 1.9281c1.9257 4.1519 6.0424 12.53 6.3234 12.87 0.39162 0.47287 2.1739 0.23748 2.8527-0.37675zm11.305-2.399c-0.90154-0.63484-1.7052-1.1477-1.7859-1.1396-0.0807 8e-3 -0.4179 0.3582-0.74927 0.77812l-0.6025 0.76349 1.6176 1.3461 1.6176 1.3461 1.5418-1.94zm-39.336-4.0884c2.3792-4.0638 4.1958-8.3604 4.5827-10.839 0.10096-0.64675 0.24778-1.414 0.32627-1.7051 0.26228-0.97262-0.36304-0.0799-2.3168 3.3073-2.8414 4.9262-7.4202 14.256-7.3808 15.039 0.0292 0.57993 3.5493-3.6851 4.7886-5.8019zm18.845 4.8524c-1.3944-3.3972-8.876-17.529-9.2802-17.529-0.2155 0 0.20704 2.7187 0.63738 4.101 0.59254 1.9034 3.3022 7.2534 5.0146 9.901 1.3832 2.1386 3.4056 4.5188 3.8395 4.5188 0.1078 0 0.0127-0.44648-0.21124-0.99219zm-34.299-0.13229c0.72327-0.78553 6.1749-9.46 5.9422-9.455-0.0992 2e-3 -0.71481 0.18991-1.368 0.41732-0.65319 0.22741-1.4981 0.35138-1.8775 0.27549-0.59151-0.1183-0.92514 0.12476-2.3394 1.7043-2.1945 2.4511-3.459 4.3712-3.459 5.2524 0 0.70992 0.6496 1.5001 1.7198 2.092 0.7209 0.39872 0.75807 0.39101 1.3819-0.28655zm47.994-0.82831c0.8619-1.3947 0.31741-2.5071-2.9774-6.0829-1.344-1.4586-2.0055-1.994-2.3347-1.8895-0.25263 0.0802-1.1909-0.0819-2.085-0.36017-0.98805-0.30752-1.5557-0.38735-1.4473-0.20356 1.5551 2.6367 5.8098 9.1443 6.198 9.4799 0.70621 0.61054 1.9627 0.16239 2.6463-0.94384zm-57.979-0.0284c1.8662-1.3699 1.9653-1.5387 1.4679-2.5006l-0.42176-0.8156-1.5131 0.95569c-2.3118 1.4602-2.3442 1.5082-1.6615 2.467 0.31971 0.44898 0.64653 0.81634 0.72626 0.81634 0.0797 0 0.7107-0.41528 1.4022-0.92285zm67.736-0.82548c1e-3 -0.27749-2.9009-2.2204-3.3167-2.2204-0.30573 0-0.8976 0.88033-0.90692 1.3489-5e-3 0.23259 0.67619 0.91222 1.5129 1.5103l1.5214 1.0874 0.594-0.71655c0.3267-0.3941 0.59459-0.84845 0.59531-1.0097zm-68.498-1.9746c1.4464-0.98221 1.5875-1.159 1.4312-1.7922-0.0954-0.3864-0.27098-0.80258-0.39022-0.92484-0.11925-0.12227-1.1813 0.33402-2.3602 1.014-1.9923 1.1491-2.1224 1.2767-1.846 1.8098 0.77762 1.4999 0.80044 1.4992 3.1652-0.10672zm69.836-0.0196c0.15758-0.2862 0.12829-0.52476-0.0855-0.69667-0.46739-0.37578-3.5712-1.9108-3.8636-1.9108-0.13543 0-0.36914 0.35256-0.51936 0.78346-0.26845 0.77009-0.24066 0.80389 1.6278 1.9798 2.0399 1.2839 2.0483 1.2834 2.8408-0.15582zm-60.691-2.3998c2.1977-2.1627 2.924-3.0747 3.6344-4.5641 0.48835-1.0237 0.86043-1.893 0.82685-1.9317-0.0336-0.0387-1.0613 0.48183-2.2837 1.1568-4.7215 2.6068-6.8529 4.3736-6.8529 5.6808 0 0.73976 1.1326 2.361 1.6494 2.361 0.15368 0 1.5154-1.2162 3.026-2.7027zm52.113 2.2338c0.71375-0.57816 1.1554-1.4344 1.1554-2.2399 0-0.69668-1.0623-1.804-2.9104-3.0338-1.0786-0.71776-6.0405-3.5178-6.2338-3.5178-0.0442 0 0.17951 0.73952 0.49705 1.6434 0.49602 1.4119 0.98306 2.0642 3.4572 4.6302 1.5839 1.6428 3.0127 2.9842 3.175 2.981 0.16234-3e-3 0.54912-0.21159 0.85951-0.46302zm-62.537-2.1293c1.9304-1.0791 2.0448-1.1938 2.0448-2.0505 0-0.49913-0.0893-0.9093-0.19844-0.91149-0.59686-0.012-5.0932 2.2529-5.0932 2.5655 0 0.45771 0.8076 1.7185 1.0348 1.6155 0.0921-0.0418 1.0875-0.59027 2.2121-1.2189zm72.134 0.26674 0.51453-1.0086-2.5242-1.2539c-1.3883-0.68963-2.5581-1.218-2.5997-1.1742-0.0415 0.0438-0.11704 0.54785-0.16781 1.1201l-0.0923 1.0405 2.1167 1.1373c1.1642 0.62554 2.144 1.1396 2.1774 1.1423 0.0334 3e-3 0.29231-0.4489 0.5753-1.0036zm-36.88-0.49705c0.64189-1.5362 0.54133-1.8017-0.6825-1.8017h-1.0754l0.16574 0.88346c0.22741 1.2122 0.69237 2.1718 0.96937 2.0006 0.12644-0.0782 0.40669-0.56521 0.62276-1.0824zm-36.018-2.2964c2.3093-1.0792 2.4832-1.2158 2.6102-2.0505 0.0748-0.4919 0.1066-0.92796 0.0706-0.96904-0.14014-0.1601-6.0665 2.2544-6.1503 2.5058-0.1359 0.40768 0.40828 1.67 0.71993 1.67 0.1515 0 1.3888-0.52028 2.7496-1.1562zm74.052 0.24924 0.43249-0.90693-2.0371-0.83898c-1.1204-0.46144-2.5431-1.0587-3.1616-1.3272l-1.1245-0.48816v2.0108l2.5797 1.2145c1.4188 0.66795 2.6469 1.2208 2.7291 1.2286 0.0822 8e-3 0.34405-0.39392 0.58191-0.89273zm-37.523-0.73945c0.22653-0.32341 0.41188-0.91319 0.41188-1.3106v-0.72257l-0.79375 0.45072c-0.7477 0.42456-0.83981 0.42456-1.5875 0l-0.79375-0.45072v0.72257c0 1.075 0.68869 1.8986 1.5875 1.8986 0.48929 0 0.91175-0.21131 1.1756-0.58804zm-25.782-1.7466c1.819-0.9597 3.7928-1.9879 4.3861-2.2848 0.91516-0.458 3.0222-2.4442 3.0222-2.8489 0-0.21458-3.8431 0.52495-6.5254 1.2557-4.7612 1.2971-6.4392 2.4043-6.4392 4.249 0 1.0216 0.85949 1.7929 1.7117 1.536 0.29551-0.0891 2.0256-0.94719 3.8446-1.9069zm54.829 1.118c0.26171-0.57439 0.22814-0.84635-0.20411-1.6536-0.72608-1.356-3.4512-2.6543-7.7348-3.6848-4.1292-0.99336-5.0857-1.163-5.0857-0.90178 0 0.5813 2.5392 2.5561 4.6312 3.6017 1.3092 0.65437 3.2625 1.6704 4.3408 2.2578 2.3749 1.2938 3.5847 1.4074 4.0526 0.38062zm-46.643-0.64797c2.7496-1.3008 6.0447-3.3686 8.8799-5.5726 2.6492-2.0594 4.5619-3.8369 4.3475-4.0403-0.0628-0.0596-1.3644 0.17552-2.8923 0.52249-1.528 0.34698-3.9349 0.79139-5.3486 0.98759-2.4002 0.33309-2.6462 0.4253-3.7126 1.3918-2.2207 2.0126-4.4374 5.1206-4.8425 6.7897-0.16953 0.69856-0.13583 0.72759 0.8443 0.72739 0.58808-1.2e-4 1.743-0.34184 2.7243-0.80605zm36.526 0.34324c-8e-3 -1.4805-1.995-4.3216-4.7956-6.8578-1.3624-1.2338-1.5917-1.3414-3.2134-1.5076-0.96043-0.0984-3.2119-0.47259-5.0033-0.83154-1.7914-0.35894-3.4281-0.65401-3.6373-0.65571-0.59138-5e-3 0.85704 1.3892 3.8549 3.71 5.9606 4.6144 12.804 7.9001 12.795 6.1426zm-56.078-1.0132c1.6672-0.66642 3.1653-1.351 3.3291-1.5214 0.34058-0.35406 0.721-1.7649 0.47589-1.7649-0.2086 0-7.6226 2.4207-7.7454 2.5289-0.15401 0.13565 0.51623 1.969 0.71983 1.969 0.10417 0 1.5535-0.54526 3.2206-1.2117zm75.665 0.26792c0.17131-0.51908 0.24299-1.0123 0.15928-1.096-0.16053-0.16054-7.6644-2.6798-7.7633-2.6063-0.0317 0.0235 0.0721 0.46514 0.23053 0.9814 0.27232 0.88731 0.46367 1.012 3.4971 2.2797 1.765 0.73758 3.2891 1.3509 3.387 1.363 0.0978 0.0121 0.31808-0.40276 0.48938-0.92183zm-38.491-0.764c0.48245-0.48245 0.64943-0.93391 0.64943-1.7559v-1.1064l-0.69754 0.69754c-0.84909 0.84909-1.7463 0.89218-2.4672 0.11848l-0.53948-0.57906v0.98796c0 1.1287 0.938 2.2868 1.8521 2.2868 0.30427 0 0.84546-0.29224 1.2026-0.64943zm-32.926-3.7633c0.20339-0.16998 0.57112-0.65208 0.81717-1.0713l0.44736-0.76226-4.6546 1.2711c-2.56 0.6991-4.8082 1.2711-4.9958 1.2711-0.55678 0-0.69277 0.48456-0.39188 1.3963l0.28276 0.85677 4.0626-1.3263c2.2344-0.72946 4.229-1.4654 4.4324-1.6354zm72.307 1.9819c0.0928-0.46384 0.0779-0.93297-0.0331-1.0425-0.11096-0.10953-2.1663-0.73308-4.5674-1.3857-2.4011-0.65258-4.574-1.2678-4.8286-1.367-0.59438-0.23175-0.58274-0.0925 0.0872 1.0429 0.51543 0.87359 0.80382 1.0149 4.5641 2.2368 2.2076 0.71739 4.1478 1.3166 4.3115 1.3316 0.16371 0.015 0.37356-0.35229 0.46633-0.81614zm-39.336-1.2463c0.36756-0.54723 0.60386-1.2962 0.60386-1.914v-1.0149l-0.92604 0.4416c-0.86483 0.41241-0.98725 0.41241-1.8521 0l-0.92605-0.4416v0.9323c0 0.51277 0.24428 1.4111 0.54284 1.9964 0.45531 0.89249 0.65657 1.0508 1.2482 0.98165 0.45281-0.0529 0.9216-0.4043 1.3092-0.98142zm-26.239-0.54761c1.5379-0.43184 4.0492-0.97121 5.5805-1.1986 1.957-0.29059 3.0138-0.58308 3.5566-0.98439 0.42474-0.31402 0.77226-0.66762 0.77226-0.78577 0-0.22085-5.1418-0.36717-8.2021-0.23341-2.0422 0.0893-3.0055 0.44738-4.3288 1.6093-1.5839 1.3907-1.8685 2.3781-0.68542 2.3781 0.28092 0 1.7691-0.35332 3.307-0.78517zm54.095 0.21504c0-0.84363-1.8762-2.4791-3.4885-3.0409-1.1909-0.41495-2.0919-0.47986-5.8822-0.42379-2.4618 0.0364-4.5454 0.13584-4.6302 0.22094-0.0849 0.0851 0.15939 0.42473 0.54277 0.75471 0.53366 0.45935 1.4019 0.70857 3.7042 1.0633 1.6539 0.25483 4.1382 0.79434 5.5207 1.1989 3.2397 0.94811 4.2333 1.0014 4.2333 0.22682zm-65.633-1.1631c5.2156-1.3656 6.7452-1.9092 7.4331-2.6414 0.58369-0.62131 0.58787-0.6524 0.0877-0.6524-0.60498 0-12.058 2.3484-12.214 2.5045-0.27611 0.2761 0.2946 1.7289 0.67918 1.7289 0.23415 0 2.0404-0.42278 4.0139-0.9395zm77.755 0.0796c0.18373-0.6834 0.14455-0.89991-0.19087-1.0549-0.60111-0.2777-10.975-2.3186-11.786-2.3186-0.98838 0-0.82584 0.37668 0.44989 1.0426 1.059 0.5528 9.856 3.1253 10.84 3.17 0.29806 0.0135 0.53534-0.27646 0.68662-0.8392zm-39.191-3.1219c0.55501-1.6045 0.42171-3.6992-0.33159-5.2108l-0.67725-1.3591 0.54496-0.54496c0.6036-0.6036 0.69699-1.367 0.254-2.0764-0.56389-0.90293 1.4853-4.935 3.4574-6.803 0.61925-0.58655 1.0924-0.79375 1.8124-0.79375 0.86148 0 0.97435-0.0762 0.97435-0.65783 0-1.2492-0.83702-0.92566-2.8495 1.1015-1.5517 1.563-2.1224 2.3793-2.9516 4.222l-1.028 2.2844-0.98292-0.13184c-0.61854-0.083-1.057-0.0119-1.1829 0.19171-0.12438 0.20126-0.68813-0.68628-1.4915-2.3481-1.0122-2.0938-1.6641-3.0442-3.0142-4.3944-0.9475-0.9475-1.8098-1.7209-1.9163-1.7187-0.482 0.0101-0.89845 0.50039-0.81007 0.9537 0.0744 0.38173 0.33796 0.50155 1.1327 0.51503 0.89814 0.0152 1.1899 0.19097 2.1962 1.3229 0.63829 0.71794 1.6796 2.3769 2.314 3.6866 1.0516 2.1709 1.1174 2.4212 0.74414 2.8336-0.51697 0.57125-0.27398 1.6753 0.45454 2.0652 0.52074 0.27868 0.51709 0.30649-0.2006 1.529-1.3123 2.2354-0.84847 6.0995 0.81717 6.8076 0.72455 0.30801 0.93301 0.29466 1.6249-0.10406 0.45993-0.26504 0.92656-0.84137 1.1095-1.3704zm-37.622 0.39338c2.7649-0.53438 5.0619-1.0024 5.1045-1.04 0.0426-0.0376-0.3374-0.31319-0.84443-0.61235l-0.92187-0.54391-4.578 0.65507c-2.5179 0.36028-4.6552 0.73911-4.7496 0.84184-0.09439 0.10273-0.11083 0.5773-0.03652 1.0546 0.10051 0.64558 0.2457 0.83563 0.56694 0.7421 0.2375-0.0691 2.694-0.56294 5.4589-1.0973zm77.278 0.26881c0.0968-0.51611 0.11119-1.0032 0.0319-1.0825-0.0793-0.0793-2.2069-0.44856-4.7281-0.82066l-4.584-0.67654-1.0291 0.70071c-0.88631 0.60347-0.94563 0.7007-0.42751 0.7007 0.67513 0 9.8616 1.8385 10.034 2.008 0.30477 0.30044 0.54428 0.0179 0.70328-0.8297zm-48.954-1.3642 3.6906-0.74013-3.0427-0.0833c-3.6047-0.0987-10.855 0.37312-13.097 0.85231l-1.5875 0.33938 1.4552 0.17249c0.80036 0.0949 1.8124 0.22292 2.249 0.28455 1.9075 0.26928 6.8382-0.12454 10.332-0.82526zm27.574 0.47327c1.6743-0.44793-7.8447-1.3643-13.697-1.3186l-3.3073 0.0258 2.3622 0.50264c4.9524 1.0538 7.0594 1.2795 10.541 1.1292 1.8582-0.0802 3.7037-0.23281 4.101-0.33911zm-57.099-1.5117c2.1884-0.26697 3.9762-0.5472 3.973-0.62273-3e-3 -0.0755-0.22828-0.42666-0.5001-0.7803l-0.49422-0.64296-4.0574 0.32769c-2.2316 0.18023-4.0978 0.3681-4.1472 0.41749-0.04939 0.0494-0.0075 0.52862 0.09314 1.065 0.14537 0.77491 0.28262 0.94909 0.66837 0.84821 0.26699-0.0698 2.2759-0.34537 4.4643-0.61235zm78.806-0.44978c0.0452-0.53446-0.0144-0.97718-0.13229-0.98383-0.11793-7e-3 -1.8813-0.16678-3.9186-0.35584-2.0373-0.18907-3.8369-0.29614-3.999-0.23794-0.34989 0.12555-0.97073 1.3937-0.69163 1.4128 0.10602 7e-3 1.9787 0.28954 4.1615 0.62733 2.1828 0.3378 4.0878 0.59057 4.2333 0.56171 0.14552-0.0289 0.30153-0.48975 0.3467-1.0242zm-56.041-1.104c2.6921 0 6.3235 0.0918 8.0698 0.20402 3.9737 0.25535 3.9984 0.27999-3.2988-3.2995l-5.4155-2.6565-3.1834 0.31134c-4.9305 0.48221-11.73 1.5633-12.572 1.999-0.98376 0.50873-1.1946 1.2277-0.66189 2.2577 0.75994 1.4696 1.4903 1.6113 7.1403 1.3851 2.7649-0.11067 7.2297-0.20122 9.9219-0.20122zm27.12 3e-3c2.7649 2e-3 7.6668 0.0612 10.893 0.13229l5.866 0.12922 0.81475-0.77711c0.93883-0.89546 1.0688-1.9536 0.32292-2.6287-0.77076-0.69753-7.895-1.9176-14.203-2.4323l-2.1266-0.17354-5.877 2.9408c-3.2324 1.6175-5.877 3.007-5.877 3.0879 0 0.0809 1.1609 0.0506 2.5797-0.0673 1.4188-0.11792 4.8419-0.21302 7.6068-0.21133zm-49.808-0.81875c2.6441-0.17762 2.9038-0.32266 2.2114-1.2348-0.30452-0.40116-0.83362-0.46302-3.9603-0.46302l-3.6089 1e-5v2.1776l1.3891-0.15324c0.76398-0.0843 2.5499-0.23122 3.9688-0.32654zm78.884 2.6e-4c0.0883-0.23018 0.1606-0.70643 0.1606-1.0583 0-0.60952-0.0796-0.63982-1.6799-0.63982-0.92393 0-2.5699-0.0752-3.6576-0.16718l-1.9777-0.16718-0.34675 0.83712c-0.19071 0.46042-0.30096 0.87763-0.24499 0.92714 0.056 0.0495 1.7091 0.20494 3.6736 0.34539 1.9645 0.14046 3.6484 0.27472 3.742 0.29837 0.0936 0.0237 0.2424-0.14532 0.33073-0.37551zm-44.929-1.3065c-0.0863-0.34367-0.89415-1.7332-1.7953-3.0879-2.0555-3.09-8.5512-9.6835-12.162-12.345-5.0008-3.6863-12.614-7.9537-16.624-9.3178-2.2228-0.75621-5.4804-0.978-6.2173-0.42331-0.29081 0.21889-0.44831 0.47842-0.35 0.57673 0.0983 0.0983 1.3834 0.41092 2.8557 0.69471 8.265 1.593 17.616 7.0622 25.899 15.148 3.2515 3.1739 6.2459 6.6745 7.4804 8.7452 0.86649 1.4533 1.2769 1.458 0.91359 0.0104zm12.438-1.8248c3.0421-1.5176 6.6026-3.4686 7.9123-4.3356 3.8544-2.5516 7.8052-6.4819 7.8052-7.7646 0-0.42563-0.22252-0.48947-1.7061-0.48947-2.1252 0-5.208 0.94329-7.544 2.3083-2.3375 1.3659-7.1796 6.1056-10.135 9.9208-2.4224 3.1269-3.0716 4.1168-2.2622 3.449 0.21943-0.18104 2.8879-1.5708 5.93-3.0884zm-14.078 1.6317c-2.6298-3.6485-7.6493-8.9828-10.597-11.261-2.2513-1.7404-5.8537-2.96-8.7434-2.96-1.9396 0-2.0111 0.14592-0.91447 1.8664 0.96882 1.52 3.6116 3.9677 6.2694 5.8065 1.7398 1.2037 14.03 7.7805 14.765 7.9012 0.12153 0.02-0.22958-0.58879-0.78026-1.3528zm9.7883-2.1828c3.6532-4.9514 8.8545-9.7252 15.774-14.477 5.6555-3.8841 9.8994-5.8077 15.316-6.9423 3.7183-0.77885 3.8784-0.84184 3.45-1.358-0.2154-0.25954-0.90379-0.37332-2.2586-0.37332-2.5251 0-5.8991 1.0636-9.9433 3.1346-6.4994 3.3282-11.698 7.0789-17.11 12.344-4.79 4.6602-7.9979 9-7.9633 10.773 0.0116 0.59505 0.0176 0.59617 0.39733 0.0749 0.21206-0.29104 1.264-1.7198 2.3376-3.175zm-40.704 0.72761c-0.0988-0.40019-0.26057-0.8021-0.35941-0.89314-0.0988-0.091-1.5787-0.24472-3.2886-0.34152l-3.1089-0.17599v2.1382h6.9365zm77.595-0.26459c-0.0819-0.98985-0.0852-0.99239-1.405-1.0794-0.7276-0.0479-2.1777-9e-3 -3.2225 0.087-1.791 0.1642-1.9148 0.21771-2.1651 0.93584l-0.26552 0.76169 1.9006 0.091c1.0453 0.05 2.6519 0.11461 3.5702 0.14353l1.6696 0.0526zm-64.773-1.6536c3.7108-0.29032 6.8064-0.52817 6.8792-0.52855 0.0728-2.6e-4 -0.82021-0.61032-1.9844-1.3554-1.1642-0.74509-2.5737-1.7159-3.1322-2.1574l-1.0156-0.80267-4.4084 0.17111c-6.1166 0.23741-6.9219 0.53105-6.9219 2.5241 0 1.1536 0.96015 2.1176 2.3812 2.391 0.65484 0.12596 1.2502 0.24177 1.3229 0.25735 0.0728 0.0156 3.1684-0.2092 6.8792-0.49952zm53.514 0.25019c1.7279-0.47985 2.625-2.0356 1.9617-3.4019-0.50416-1.0386-1.9939-1.3734-6.8405-1.5376l-4.414-0.14956-1.8037 1.3308c-0.99202 0.73191-2.3925 1.7016-3.1122 2.1549-1.2713 0.80066-1.2864 0.82472-0.52916 0.84539 0.42867 0.0117 3.2202 0.23316 6.2034 0.49212 6.7802 0.58856 7.3131 0.60516 8.5345 0.26596zm-67.169-0.71321c-0.0943-0.40019-0.25311-0.81865-0.35286-0.92991-0.0998-0.11127-1.3345-0.27805-2.744-0.37064l-2.5626-0.16833v1.9066l1.6536 0.0939c4.4178 0.25097 4.1972 0.28026 4.0058-0.5317zm78.213-0.59532c0-0.67278-0.12048-1.0566-0.33072-1.0536-0.18191 3e-3 -1.392 0.11633-2.6891 0.25277-2.3562 0.24784-2.7888 0.46381-2.797 1.3962-4e-3 0.41315 0.30939 0.46302 2.9064 0.46302h2.9104zm-79.007-1.7859c-0.24482-1.0387-0.35592-1.1094-2.2156-1.4089-2.0359-0.32787-2.2862-0.24684-2.4383 0.78924-0.12978 0.88428 0.02217 0.95348 2.5664 1.1687 2.4274 0.20537 2.2748 0.2455 2.0875-0.5491zm76.957 0.3191c1.6494-0.15033 1.7859-0.21011 1.7859-0.78154 0-1.0807-0.24195-1.3851-1.0054-1.265-3.1416 0.49421-3.4437 0.6115-3.7362 1.4506-0.15698 0.45034-0.28543 0.85759-0.28543 0.905 0 0.0474 0.32742 0.0339 0.7276-0.03s1.5313-0.1895 2.5135-0.27903zm-77.589-2.1135c0-0.0774-0.16958-0.54667-0.37686-1.0428-0.30194-0.72264-0.59877-0.96171-1.4931-1.2025-1.1936-0.32139-1.5569-0.1207-1.5655 0.86472-0.0021 0.25466-0.03382 0.55231-0.0702 0.66145-0.03638 0.10915 0.64823 0.33429 1.5214 0.50033 2.0516 0.39015 1.9844 0.38274 1.9844 0.21878zm78.383-0.55357c0.48396-0.14115 0.61478-1.038 0.23804-1.6319-0.16499-0.26006-0.48825-0.2809-1.3508-0.0871-1.3294 0.29869-1.499 0.4399-1.7504 1.4568l-0.18866 0.76329 1.2944-0.18305c0.71193-0.10067 1.5028-0.24382 1.7574-0.3181zm-64.896-2.2035c-2.0219-2.275-2.6114-2.485-7.0416-2.5088-2.8024-0.015-3.2838 0.0471-3.7703 0.48679-1.0216 0.92319-0.5254 2.3786 1.1119 3.2611 0.68469 0.36906 1.8169 0.48105 6.0032 0.5938 2.8376 0.0764 5.2032 0.11492 5.2569 0.0855 0.0536-0.0294-0.64841-0.89267-1.5601-1.9184zm57.742 1.3725c1.8506-0.78862 2.4083-2.5598 1.0799-3.4294-0.57679-0.37761-1.2865-0.46902-3.638-0.46864-4.139 8e-4 -4.9565 0.29553-6.9656 2.5121-0.90442 0.99782-1.6446 1.8527-1.6448 1.8998-1e-3 0.23752 10.544-0.24761 11.169-0.5138zm-72.288-1.4512c-8e-4 -0.1819-0.28123-0.79308-0.62329-1.3582l-0.62194-1.0274-0.30275 0.86848c-0.44611 1.2797-0.38036 1.5364 0.42485 1.6583 0.40018 0.0606 0.8169 0.12806 0.92604 0.14986s0.19783-0.10918 0.19709-0.29108zm79.282-0.2808c0.14412-0.14412-0.52323-2.0343-0.71823-2.0343-0.10687 0-0.31284 0.32743-0.45771 0.72761-0.14488 0.40018-0.3551 0.95484-0.46717 1.2326-0.18339 0.45449-0.11529 0.48728 0.68125 0.32797 0.48676-0.0974 0.91959-0.21158 0.96186-0.25385zm-66.701-2.5261c-0.49444-1.5578 3.3202-1.6234 7.7174-0.13255 1.3682 0.46387-1.038-0.8685-2.7941-1.5472-4.0022-1.5467-9.4897-2.8829-12.494-3.0422-3.328-0.17645-3.9509 0.0357-3.9509 1.3456 0 1.6239 0.97056 2.0958 5.4943 2.6711 2.7946 0.35542 5.2096 0.81642 6.099 1.1642 0.0462 0.0181 0.0137-0.18848-0.0721-0.45898zm57.184-0.55689c1.4299-0.1624 3.215-0.416 3.9669-0.56355 2.3109-0.45344 3.5247-2.3017 2.1458-3.2675-0.77933-0.54586-3.9421-0.54404-6.8572 4e-3 -3.9926 0.75054-12.543 3.7608-12.059 4.2452 0.0565 0.0565 0.80694-0.14127 1.6676-0.43957 2.2978-0.79645 4.6756-0.97152 5.5362-0.40761 0.4668 0.30586 0.63681 0.60093 0.5336 0.92613-0.1416 0.44614-0.0661 0.45512 1.1574 0.13773 0.71989-0.18674 2.4788-0.4724 3.9086-0.6348zm-6.1315-2.9967c3.5278-1.1308 7.0463-1.8978 10.583-2.3069 3.0062-0.34773 3.8114-0.64522 4.2903-1.5852 0.29924-0.58731 0.27045-0.71686-0.25684-1.1558-0.516-0.42952-0.92336-0.47743-3.1074-0.36548-3.7545 0.19244-7.4313 1.6191-12.832 4.9792-2.7635 1.7192-3.7333 2.4372-2.3812 1.763 0.43657-0.21771 2.1034-0.81565 3.7042-1.3288zm-46.051 1.1595c-0.13824-0.13203-1.712-1.0735-3.4974-2.0922-5.7419-3.2763-9.8138-4.6873-12.963-4.4919-1.8846 0.11696-2.6093 0.59529-2.3135 1.5272 0.24128 0.76023 1.4162 1.2209 3.7059 1.453 3.6759 0.37261 12.342 2.4959 14.155 3.4682 0.7762 0.41621 1.2858 0.49204 0.91281 0.13581zm1.4688-4.3285c-0.50911-0.32497-3.3575-2.1561-6.3298-4.0692l-5.4042-3.4783-0.46444 0.56788c-0.25544 0.31233-0.38359 0.64362-0.28478 0.73619 0.0988 0.09257 1.3108 0.68647 2.6932 1.3198 2.5382 1.1628 7.2933 3.7549 8.9911 4.9013 0.50673 0.34215 1.102 0.62009 1.3229 0.61763 0.22088-2e-3 -0.0149-0.27034-0.52405-0.59531zm41.671-1.1066c2.4763-1.5669 8.9846-4.9082 9.5604-4.9082 0.58274 0 0.6917-0.54721 0.21406-1.075-0.25509-0.28187-0.56384-0.5125-0.68611-0.5125-0.12228 0-1.4433 0.87767-2.9356 1.9504-1.4923 1.0727-4.0825 2.8146-5.756 3.8709s-3.1618 2.0416-3.3073 2.1896c-0.53303 0.54216 0.55125-0.0223 2.9104-1.5151zm-40.145 0.69764c0.0576-0.17281-0.0265-0.3142-0.18685-0.3142-0.2816 0-8.9169-6.7685-10.407-8.1575l-0.73303-0.68312-0.7155 0.71549c-0.71154 0.71155-0.71261 0.7183-0.193 1.2238 0.86276 0.83932 11.568 7.7173 11.861 7.62 0.1488-0.0496 0.31767-0.23157 0.37527-0.40437zm40.728-2.073c4.173-2.7209 8.0159-5.5398 8.0159-5.8798 0-0.11362-0.29415-0.48291-0.65366-0.82066l-0.65367-0.61408-1.4963 1.2956c-3.5029 3.033-5.9222 5.0099-7.8338 6.4012-1.5712 1.1436-1.9732 1.5624-1.7535 1.827 0.15671 0.18883 0.32437 0.34332 0.37256 0.34332 0.0482 0 1.8493-1.1487 4.0025-2.5526zm-39.927 0.82775c-0.1892-0.17331-2.5766-2.416-5.3054-4.9837-2.7287-2.5677-5.0595-4.6686-5.1794-4.6686-0.42689 0-1.4696 1.328-1.2196 1.5533 0.60276 0.54316 8.5909 6.9367 9.8928 7.918 1.114 0.83964 1.5241 1.0201 1.7992 0.79181 0.2921-0.24242 0.29433-0.35254 0.0123-0.61084zm39.215-2.6154c2.2534-1.805 4.752-3.8765 5.5524-4.6032l1.4552-1.3213-0.64143-0.6885c-0.35279-0.37868-0.71593-0.6885-0.80698-0.6885-0.091 0-1.4693 1.2838-3.0627 2.853-1.5934 1.5691-3.9517 3.8462-5.2405 5.0602-1.7463 1.6448-2.2519 2.2652-1.9844 2.4347 0.19744 0.1251 0.42026 0.22928 0.49515 0.23151 0.0749 2e-3 1.9799-1.4728 4.2333-3.2778zm-42.405-3.2736c-2.6298-2.8249-4.9449-5.1989-5.1446-5.2755-0.35884-0.1377-1.4017 0.60978-1.4017 1.0047 0 0.11224 2.3254 2.4142 5.1676 5.1155 4.5738 4.3471 5.2246 4.8758 5.6639 4.6014 0.45048-0.28133 0.0544-0.78472-4.2852-5.4461zm42.27 0.64836c2.6919-2.594 4.8944-4.8651 4.8944-5.047 0-0.18184-0.28121-0.5948-0.62491-0.9177l-0.62491-0.58707-2.2288 2.4592c-1.8684 2.0615-4.2921 4.7908-6.9542 7.8309-0.45651 0.52135-0.47722 0.6448-0.14354 0.8556 0.21447 0.13549 0.47942 0.21846 0.58878 0.18437 0.10935-0.0341 2.4013-2.1843 5.0932-4.7783zm-36.93 2.5202c-0.45677-0.53821-2.5023-3.0622-4.5457-5.6088-2.0434-2.5466-3.7866-4.6554-3.8739-4.6862-0.0873-0.0308-0.50141 0.22399-0.92029 0.56621l-0.76159 0.62221 2.746 3.0044c6.0024 6.5672 7.1294 7.6462 7.6796 7.3518 0.48014-0.25697 0.46334-0.32177-0.32409-1.2496zm35.424-4.1444c4.2485-4.884 4.5548-5.3045 4.107-5.6393-1.2498-0.93457-1.196-0.97022-3.8374 2.5385-1.3897 1.8459-3.3264 4.3942-4.3038 5.6628-1.6828 2.1842-1.9665 2.987-0.98906 2.7988 0.23783-0.0458 2.4983-2.4582 5.0233-5.3608zm-33.587 4.3842c0.27678-0.17536-0.4025-1.3013-2.9108-4.8246-1.7995-2.5277-3.6288-5.1612-4.0652-5.8522-0.43637-0.69096-0.91246-1.2557-1.058-1.255-0.14552 7.94e-4 -0.59659 0.22018-1.0024 0.48774l-0.73777 0.48647 2.6955 3.4144c3.3884 4.2921 6.3264 7.7812 6.5478 7.776 0.0934-2e-3 0.33228-0.10698 0.53086-0.23278zm29.878-3.1366c3.6908-4.7631 5.8765-7.746 5.8765-8.0198 0-0.23422-1.5788-1.1582-1.7011-0.99558-0.0354 0.04711-1.1774 1.8121-2.5378 3.9221s-3.1136 4.7084-3.896 5.7741c-1.1456 1.5604-1.3616 2.0112-1.1094 2.3151 0.17229 0.20759 0.41237 0.37743 0.53352 0.37743s1.3966-1.518 2.8343-3.3734zm-28.255 2.0399c0-0.20824-6.7556-11.528-7.1493-11.979-0.10362-0.11882-0.5508 0.0044-0.99374 0.27373-0.97729 0.59433-1.187 0.15405 2.8082 5.8954 4.0095 5.762 4.4848 6.355 4.95 6.1765 0.21168-0.0812 0.38487-0.24607 0.38487-0.36632zm27.216-4.0904c2.5717-3.7659 4.5336-6.8982 4.5336-7.2382 0-0.1196-0.32742-0.38157-0.7276-0.58216-0.40019-0.20059-0.80375-0.40383-0.8968-0.45164-0.0931-0.04782-0.99883 1.4962-2.0128 3.4311-1.014 1.9349-2.566 4.7087-3.449 6.1639-1.448 2.3865-1.5625 2.6789-1.1685 2.9834 0.52398 0.40481 0.428 0.51588 3.721-4.3063zm-26.047 3.6759c0.23019-0.08833 0.41852-0.2519 0.41852-0.36349 0-0.25993-6.0523-11.97-6.3387-12.265-0.11828-0.12152-0.59355-0.02522-1.0562 0.214l-0.84111 0.43495 0.49945 0.84433c2.7632 4.6712 6.7656 11.295 6.8249 11.295 0.041 0 0.26295-0.0723 0.49313-0.16059zm23.749-3.8759c3.4544-6.0688 4.5058-8.0962 4.3388-8.3665-0.0832-0.13469-0.51344-0.37112-0.95599-0.5254-0.71793-0.25028-0.82923-0.21744-1.0328 0.30468-0.61082 1.5663-3.2406 7.2211-4.4283 9.5221-1.1663 2.2596-1.2813 2.6185-0.90866 2.8362 0.23462 0.13711 0.48611 0.2522 0.55887 0.25575 0.0728 4e-3 1.1654-1.8085 2.4281-4.0269zm-22.06 3.0162c0.26678-0.16922 0.0518-0.89868-0.95384-3.2371-0.71402-1.6603-1.9274-4.5367-2.6964-6.3921-0.76901-1.8554-1.4266-3.3734-1.4612-3.3734-0.0347 0-0.50139 0.18314-1.0371 0.40699l-0.97407 0.40699 2.7619 5.3477c1.519 2.9412 2.9579 5.7346 3.1975 6.2076 0.45913 0.9063 0.60648 0.98653 1.1633 0.63335zm20.023-3.3241c1.5297-3.1741 4.1065-8.8373 4.1065-9.0253 0-0.17343-1.6692-0.63398-1.8632-0.51408-0.11819 0.07305-0.35638 0.56152-0.5293 1.0855-0.17293 0.52397-1.249 3.3384-2.3912 6.2544-1.1422 2.9159-2.0145 5.4026-1.9382 5.5259 0.43708 0.70721 1.0427-0.06306 2.6155-3.3264zm-18.294 2.8693c0.34101-0.13086 0.34746-0.27012 0.046-0.99219-0.19288-0.46198-1.1931-3.3187-2.2228-6.3483-1.0297-3.0296-1.9352-5.6104-2.0123-5.7352-0.1248-0.20194-1.6237 0.07831-1.9008 0.35538-0.11186 0.11187 0.77776 2.345 3.255 8.171 0.78773 1.8525 1.5463 3.6682 1.6857 4.0349 0.2609 0.68622 0.46425 0.77726 1.1491 0.51444zm15.204-0.49926c1.3826-3.0345 4.7324-12.219 4.5303-12.422-0.077-0.07694-0.53275-0.1733-1.0129-0.21413l-0.87298-0.07423-0.78124 2.7781c-0.42968 1.528-1.3073 4.4317-1.9503 6.4528-0.64297 2.0211-1.1056 3.7772-1.0282 3.9026 0.26842 0.4343 0.81983 0.22489 1.1153-0.42356zm-13.397-0.41314c-0.0485-0.21483-0.82243-3.2255-1.7198-6.6905l-1.6316-6.2999-0.92604 0.1719c-0.50933 0.09455-0.9697 0.21485-1.023 0.26735-0.0534 0.0525 0.88573 3.0246 2.0869 6.6046 1.9891 5.9286 2.2337 6.5015 2.7428 6.4231 0.33184-0.05109 0.52312-0.24478 0.47073-0.47666zm12.361-1.9119c1.1178-3.3918 3.2023-10.609 3.0951-10.716-0.0486-0.04856-0.49742-0.15469-0.99746-0.23584l-0.90916-0.14753-0.60183 2.7385c-0.33101 1.5062-1.0082 4.3696-1.5049 6.3631-1.0508 4.2178-1.0711 4.4452-0.39569 4.4452 0.40538 0 0.66945-0.49188 1.3139-2.4474zm-10.74 1.6441c-0.18079-1.262-1.7112-9.9282-2.0074-11.367-0.35115-1.7061-0.36085-1.7195-1.2151-1.6787-0.47361 0.0226-0.93139 0.11135-1.0173 0.19724-0.1397 0.1397 2.9895 12.683 3.294 13.204 0.20886 0.35731 1.005 0.0585 0.94578-0.35497zm8.8936-2.0409c1.8516-8.0359 2.4273-10.717 2.3235-10.821-0.0637-0.06375-0.51804-0.18116-1.0096-0.26092l-0.89366-0.14502-1.067 6.7677c-0.69231 4.3913-0.97068 6.808-0.79277 6.8823 0.70245 0.29361 0.88369-0.01153 1.4394-2.4233zm-7.1216 2.1167c-2e-3 -0.10914-0.29919-3.1155-0.66085-6.6807-0.36165-3.5653-0.65783-6.5716-0.65816-6.6807-3.4e-4 -0.10914-0.47686-0.19844-1.059-0.19844-0.58208 0-1.0583 0.06909-1.0583 0.15354 0 0.29155 2.1529 12.944 2.2586 13.274 0.11226 0.35019 1.1833 0.4705 1.1777 0.13229zm1.5908-4.7887c0-2.7429-0.0781-5.9107-0.17347-7.0394l-0.17348-2.0522-0.91764 0.14891c-0.5047 0.0819-0.94847 0.18377-0.98615 0.22638-0.0377 0.0426 0.21031 2.935 0.55108 6.4275s0.62447 6.5584 0.63046 6.813c7e-3 0.28301 0.2166 0.46302 0.54004 0.46302 0.51045 0 0.52916-0.17639 0.52916-4.9872zm1.7171 4.6564c0.17822-0.52163 0.89211-13.273 0.75548-13.494-0.0674-0.10914-0.53225-0.19844-1.033-0.19844h-0.91043v6.8351c0 3.7593 0.0794 6.9144 0.17639 7.0115 0.29094 0.29094 0.89068 0.19943 1.0115-0.15434zm2.4755-5.5562c0.48359-3.2378 0.94393-6.3335 1.023-6.8792l0.14371-0.99219h-2.1221l-0.17262 1.9182c-0.23113 2.5686-0.67105 9.6087-0.67786 10.848-4e-3 0.77308 0.0975 0.99219 0.46061 0.99219 0.40471 0 0.58179-0.7749 1.3453-5.887z" stroke-width=".26458"/>
 </g>
</svg>
